<mxfile host="app.diagrams.net" modified="2023-10-31T15:52:27.586Z" agent="Mozilla/5.0 (X11; Linux x86_64; rv:109.0) Gecko/20100101 Firefox/114.0" etag="gUN0_R0H0yDLJftmZG-8" version="22.0.8" type="github">
  <diagram name="PÃ¡gina-1" id="U4m50CLKxvF5wlJyP4sZ">
    <mxGraphModel dx="1434" dy="795" grid="1" gridSize="10" guides="1" tooltips="1" connect="1" arrows="1" fold="1" page="1" pageScale="1" pageWidth="827" pageHeight="1169" math="0" shadow="0">
      <root>
        <mxCell id="0" />
        <mxCell id="1" parent="0" />
        <mxCell id="86glMdXCNUQoHMZyvkVU-4" style="edgeStyle=orthogonalEdgeStyle;rounded=0;orthogonalLoop=1;jettySize=auto;html=1;exitX=1;exitY=0.5;exitDx=0;exitDy=0;entryX=0;entryY=0.5;entryDx=0;entryDy=0;endArrow=none;endFill=0;" edge="1" parent="1" source="86glMdXCNUQoHMZyvkVU-1" target="86glMdXCNUQoHMZyvkVU-2">
          <mxGeometry relative="1" as="geometry" />
        </mxCell>
        <mxCell id="86glMdXCNUQoHMZyvkVU-1" value="Cliente" style="whiteSpace=wrap;html=1;align=center;fillColor=#d5e8d4;strokeColor=#82b366;" vertex="1" parent="1">
          <mxGeometry x="90" y="120" width="100" height="40" as="geometry" />
        </mxCell>
        <mxCell id="86glMdXCNUQoHMZyvkVU-5" style="edgeStyle=orthogonalEdgeStyle;rounded=0;orthogonalLoop=1;jettySize=auto;html=1;exitX=1;exitY=0.5;exitDx=0;exitDy=0;entryX=0;entryY=0.5;entryDx=0;entryDy=0;endArrow=none;endFill=0;" edge="1" parent="1" source="86glMdXCNUQoHMZyvkVU-2" target="86glMdXCNUQoHMZyvkVU-3">
          <mxGeometry relative="1" as="geometry" />
        </mxCell>
        <mxCell id="86glMdXCNUQoHMZyvkVU-2" value="a futuro" style="shape=rhombus;perimeter=rhombusPerimeter;whiteSpace=wrap;html=1;align=center;fillColor=#fff2cc;strokeColor=#d6b656;" vertex="1" parent="1">
          <mxGeometry x="240" y="110" width="120" height="60" as="geometry" />
        </mxCell>
        <mxCell id="86glMdXCNUQoHMZyvkVU-3" value="Producto" style="whiteSpace=wrap;html=1;align=center;fillColor=#d5e8d4;strokeColor=#82b366;" vertex="1" parent="1">
          <mxGeometry x="410" y="120" width="100" height="40" as="geometry" />
        </mxCell>
      </root>
    </mxGraphModel>
  </diagram>
</mxfile>
